<?xml version="1.0" encoding="utf-8" standalone="no"?>
<!DOCTYPE svg PUBLIC "-//W3C//DTD SVG 1.1//EN"
  "http://www.w3.org/Graphics/SVG/1.1/DTD/svg11.dtd">
<svg xmlns:xlink="http://www.w3.org/1999/xlink" width="443.806562pt" height="372.853531pt" viewBox="0 0 443.806562 372.853531" xmlns="http://www.w3.org/2000/svg" version="1.1">
 <metadata>
  <rdf:RDF xmlns:dc="http://purl.org/dc/elements/1.1/" xmlns:cc="http://creativecommons.org/ns#" xmlns:rdf="http://www.w3.org/1999/02/22-rdf-syntax-ns#">
   <cc:Work>
    <dc:type rdf:resource="http://purl.org/dc/dcmitype/StillImage"/>
    <dc:date>2026-06-23T01:17:00.881082</dc:date>
    <dc:format>image/svg+xml</dc:format>
    <dc:creator>
     <cc:Agent>
      <dc:title>Matplotlib v3.10.9, https://matplotlib.org/</dc:title>
     </cc:Agent>
    </dc:creator>
   </cc:Work>
  </rdf:RDF>
 </metadata>
 <defs>
  <style type="text/css">*{stroke-linejoin: round; stroke-linecap: butt}</style>
 </defs>
 <g id="figure_1">
  <g id="patch_1">
   <path d="M 0 372.853531 
L 443.806562 372.853531 
L 443.806562 0 
L 0 0 
z
" style="fill: #ffffff"/>
  </g>
  <g id="axes_1">
   <g id="patch_2">
    <path d="M 60.341875 331.461656 
L 417.461875 331.461656 
L 417.461875 20.997656 
L 60.341875 20.997656 
z
" style="fill: #ffffff"/>
   </g>
   <g id="matplotlib.axis_1">
    <g id="xtick_1">
     <g id="line2d_1">
      <path d="M 76.574602 331.461656 
L 76.574602 20.997656 
" clip-path="url(#p00ae374693)" style="fill: none; stroke: #d8dee5; stroke-width: 1.5; stroke-linecap: round"/>
     </g>
     <g id="text_1">
      <text style="font-size: 10px; font-family: 'DejaVu Sans'; text-anchor: middle; fill: #1d2433" x="76.574602" y="351.560094" transform="rotate(-0 76.574602 351.560094)">-74.01</text>
     </g>
    </g>
    <g id="xtick_2">
     <g id="line2d_2">
      <path d="M 130.683693 331.461656 
L 130.683693 20.997656 
" clip-path="url(#p00ae374693)" style="fill: none; stroke: #d8dee5; stroke-width: 1.5; stroke-linecap: round"/>
     </g>
     <g id="text_2">
      <text style="font-size: 10px; font-family: 'DejaVu Sans'; text-anchor: middle; fill: #1d2433" x="130.683693" y="351.560094" transform="rotate(-0 130.683693 351.560094)">-74.00</text>
     </g>
    </g>
    <g id="xtick_3">
     <g id="line2d_3">
      <path d="M 184.792784 331.461656 
L 184.792784 20.997656 
" clip-path="url(#p00ae374693)" style="fill: none; stroke: #d8dee5; stroke-width: 1.5; stroke-linecap: round"/>
     </g>
     <g id="text_3">
      <text style="font-size: 10px; font-family: 'DejaVu Sans'; text-anchor: middle; fill: #1d2433" x="184.792784" y="351.560094" transform="rotate(-0 184.792784 351.560094)">-73.99</text>
     </g>
    </g>
    <g id="xtick_4">
     <g id="line2d_4">
      <path d="M 238.901875 331.461656 
L 238.901875 20.997656 
" clip-path="url(#p00ae374693)" style="fill: none; stroke: #d8dee5; stroke-width: 1.5; stroke-linecap: round"/>
     </g>
     <g id="text_4">
      <text style="font-size: 10px; font-family: 'DejaVu Sans'; text-anchor: middle; fill: #1d2433" x="238.901875" y="351.560094" transform="rotate(-0 238.901875 351.560094)">-73.98</text>
     </g>
    </g>
    <g id="xtick_5">
     <g id="line2d_5">
      <path d="M 293.010966 331.461656 
L 293.010966 20.997656 
" clip-path="url(#p00ae374693)" style="fill: none; stroke: #d8dee5; stroke-width: 1.5; stroke-linecap: round"/>
     </g>
     <g id="text_5">
      <text style="font-size: 10px; font-family: 'DejaVu Sans'; text-anchor: middle; fill: #1d2433" x="293.010966" y="351.560094" transform="rotate(-0 293.010966 351.560094)">-73.97</text>
     </g>
    </g>
    <g id="xtick_6">
     <g id="line2d_6">
      <path d="M 347.120057 331.461656 
L 347.120057 20.997656 
" clip-path="url(#p00ae374693)" style="fill: none; stroke: #d8dee5; stroke-width: 1.5; stroke-linecap: round"/>
     </g>
     <g id="text_6">
      <text style="font-size: 10px; font-family: 'DejaVu Sans'; text-anchor: middle; fill: #1d2433" x="347.120057" y="351.560094" transform="rotate(-0 347.120057 351.560094)">-73.96</text>
     </g>
    </g>
    <g id="xtick_7">
     <g id="line2d_7">
      <path d="M 401.229148 331.461656 
L 401.229148 20.997656 
" clip-path="url(#p00ae374693)" style="fill: none; stroke: #d8dee5; stroke-width: 1.5; stroke-linecap: round"/>
     </g>
     <g id="text_7">
      <text style="font-size: 10px; font-family: 'DejaVu Sans'; text-anchor: middle; fill: #1d2433" x="401.229148" y="351.560094" transform="rotate(-0 401.229148 351.560094)">-73.95</text>
     </g>
    </g>
    <g id="text_8">
     <text style="font-size: 12px; font-family: 'DejaVu Sans'; text-anchor: middle; fill: #1d2433" x="238.901875" y="366.757906" transform="rotate(-0 238.901875 366.757906)">Longitude</text>
    </g>
   </g>
   <g id="matplotlib.axis_2">
    <g id="ytick_1">
     <g id="line2d_8">
      <path d="M 60.341875 317.349656 
L 417.461875 317.349656 
" clip-path="url(#p00ae374693)" style="fill: none; stroke: #d8dee5; stroke-width: 1.5; stroke-linecap: round"/>
     </g>
     <g id="text_9">
      <text style="font-size: 10px; font-family: 'DejaVu Sans'; text-anchor: end; fill: #1d2433" x="47.841875" y="321.148875" transform="rotate(-0 47.841875 321.148875)">40.68</text>
     </g>
    </g>
    <g id="ytick_2">
     <g id="line2d_9">
      <path d="M 60.341875 260.901656 
L 417.461875 260.901656 
" clip-path="url(#p00ae374693)" style="fill: none; stroke: #d8dee5; stroke-width: 1.5; stroke-linecap: round"/>
     </g>
     <g id="text_10">
      <text style="font-size: 10px; font-family: 'DejaVu Sans'; text-anchor: end; fill: #1d2433" x="47.841875" y="264.700875" transform="rotate(-0 47.841875 264.700875)">40.70</text>
     </g>
    </g>
    <g id="ytick_3">
     <g id="line2d_10">
      <path d="M 60.341875 204.453656 
L 417.461875 204.453656 
" clip-path="url(#p00ae374693)" style="fill: none; stroke: #d8dee5; stroke-width: 1.5; stroke-linecap: round"/>
     </g>
     <g id="text_11">
      <text style="font-size: 10px; font-family: 'DejaVu Sans'; text-anchor: end; fill: #1d2433" x="47.841875" y="208.252875" transform="rotate(-0 47.841875 208.252875)">40.72</text>
     </g>
    </g>
    <g id="ytick_4">
     <g id="line2d_11">
      <path d="M 60.341875 148.005656 
L 417.461875 148.005656 
" clip-path="url(#p00ae374693)" style="fill: none; stroke: #d8dee5; stroke-width: 1.5; stroke-linecap: round"/>
     </g>
     <g id="text_12">
      <text style="font-size: 10px; font-family: 'DejaVu Sans'; text-anchor: end; fill: #1d2433" x="47.841875" y="151.804875" transform="rotate(-0 47.841875 151.804875)">40.74</text>
     </g>
    </g>
    <g id="ytick_5">
     <g id="line2d_12">
      <path d="M 60.341875 91.557656 
L 417.461875 91.557656 
" clip-path="url(#p00ae374693)" style="fill: none; stroke: #d8dee5; stroke-width: 1.5; stroke-linecap: round"/>
     </g>
     <g id="text_13">
      <text style="font-size: 10px; font-family: 'DejaVu Sans'; text-anchor: end; fill: #1d2433" x="47.841875" y="95.356875" transform="rotate(-0 47.841875 95.356875)">40.76</text>
     </g>
    </g>
    <g id="ytick_6">
     <g id="line2d_13">
      <path d="M 60.341875 35.109656 
L 417.461875 35.109656 
" clip-path="url(#p00ae374693)" style="fill: none; stroke: #d8dee5; stroke-width: 1.5; stroke-linecap: round"/>
     </g>
     <g id="text_14">
      <text style="font-size: 10px; font-family: 'DejaVu Sans'; text-anchor: end; fill: #1d2433" x="47.841875" y="38.908875" transform="rotate(-0 47.841875 38.908875)">40.78</text>
     </g>
    </g>
    <g id="text_15">
     <text style="font-size: 12px; font-family: 'DejaVu Sans'; text-anchor: middle; fill: #1d2433" x="12.718125" y="176.229656" transform="rotate(-90 12.718125 176.229656)">Latitude</text>
    </g>
   </g>
   <g id="PathCollection_1">
    <defs>
     <path id="m3ea0ce2bcd" d="M 0 4 
C 1.060812 4 2.078319 3.578535 2.828427 2.828427 
C 3.578535 2.078319 4 1.060812 4 0 
C 4 -1.060812 3.578535 -2.078319 2.828427 -2.828427 
C 2.078319 -3.578535 1.060812 -4 0 -4 
C -1.060812 -4 -2.078319 -3.578535 -2.828427 -2.828427 
C -3.578535 -2.078319 -4 -1.060812 -4 0 
C -4 1.060812 -3.578535 2.078319 -2.828427 2.828427 
C -2.078319 3.578535 -1.060812 4 0 4 
z
" style="stroke: #ffffff; stroke-width: 0.6"/>
    </defs>
    <g clip-path="url(#p00ae374693)">
     <use xlink:href="#m3ea0ce2bcd" x="184.792784" y="176.229656" style="fill: #c8d4df; stroke: #ffffff; stroke-width: 0.6"/>
     <use xlink:href="#m3ea0ce2bcd" x="184.792784" y="204.453656" style="fill: #c8d4df; stroke: #ffffff; stroke-width: 0.6"/>
     <use xlink:href="#m3ea0ce2bcd" x="184.792784" y="148.005656" style="fill: #c8d4df; stroke: #ffffff; stroke-width: 0.6"/>
     <use xlink:href="#m3ea0ce2bcd" x="184.792784" y="119.781656" style="fill: #c8d4df; stroke: #ffffff; stroke-width: 0.6"/>
     <use xlink:href="#m3ea0ce2bcd" x="130.683693" y="148.005656" style="fill: #c8d4df; stroke: #ffffff; stroke-width: 0.6"/>
     <use xlink:href="#m3ea0ce2bcd" x="130.683693" y="176.229656" style="fill: #c8d4df; stroke: #ffffff; stroke-width: 0.6"/>
     <use xlink:href="#m3ea0ce2bcd" x="238.901875" y="176.229656" style="fill: #c8d4df; stroke: #ffffff; stroke-width: 0.6"/>
     <use xlink:href="#m3ea0ce2bcd" x="238.901875" y="148.005656" style="fill: #c8d4df; stroke: #ffffff; stroke-width: 0.6"/>
     <use xlink:href="#m3ea0ce2bcd" x="184.792784" y="91.557656" style="fill: #c8d4df; stroke: #ffffff; stroke-width: 0.6"/>
     <use xlink:href="#m3ea0ce2bcd" x="130.683693" y="119.781656" style="fill: #c8d4df; stroke: #ffffff; stroke-width: 0.6"/>
     <use xlink:href="#m3ea0ce2bcd" x="238.901875" y="63.333656" style="fill: #c8d4df; stroke: #ffffff; stroke-width: 0.6"/>
     <use xlink:href="#m3ea0ce2bcd" x="238.901875" y="119.781656" style="fill: #c8d4df; stroke: #ffffff; stroke-width: 0.6"/>
     <use xlink:href="#m3ea0ce2bcd" x="130.683693" y="204.453656" style="fill: #c8d4df; stroke: #ffffff; stroke-width: 0.6"/>
     <use xlink:href="#m3ea0ce2bcd" x="238.901875" y="91.557656" style="fill: #c8d4df; stroke: #ffffff; stroke-width: 0.6"/>
     <use xlink:href="#m3ea0ce2bcd" x="347.120057" y="204.453656" style="fill: #c8d4df; stroke: #ffffff; stroke-width: 0.6"/>
     <use xlink:href="#m3ea0ce2bcd" x="76.574602" y="232.677656" style="fill: #c8d4df; stroke: #ffffff; stroke-width: 0.6"/>
     <use xlink:href="#m3ea0ce2bcd" x="238.901875" y="204.453656" style="fill: #c8d4df; stroke: #ffffff; stroke-width: 0.6"/>
     <use xlink:href="#m3ea0ce2bcd" x="293.010966" y="91.557656" style="fill: #c8d4df; stroke: #ffffff; stroke-width: 0.6"/>
     <use xlink:href="#m3ea0ce2bcd" x="76.574602" y="204.453656" style="fill: #c8d4df; stroke: #ffffff; stroke-width: 0.6"/>
     <use xlink:href="#m3ea0ce2bcd" x="130.683693" y="91.557656" style="fill: #c8d4df; stroke: #ffffff; stroke-width: 0.6"/>
     <use xlink:href="#m3ea0ce2bcd" x="76.574602" y="176.229656" style="fill: #c8d4df; stroke: #ffffff; stroke-width: 0.6"/>
     <use xlink:href="#m3ea0ce2bcd" x="238.901875" y="289.125656" style="fill: #c8d4df; stroke: #ffffff; stroke-width: 0.6"/>
     <use xlink:href="#m3ea0ce2bcd" x="238.901875" y="35.109656" style="fill: #c8d4df; stroke: #ffffff; stroke-width: 0.6"/>
     <use xlink:href="#m3ea0ce2bcd" x="184.792784" y="289.125656" style="fill: #c8d4df; stroke: #ffffff; stroke-width: 0.6"/>
     <use xlink:href="#m3ea0ce2bcd" x="76.574602" y="148.005656" style="fill: #c8d4df; stroke: #ffffff; stroke-width: 0.6"/>
     <use xlink:href="#m3ea0ce2bcd" x="293.010966" y="119.781656" style="fill: #c8d4df; stroke: #ffffff; stroke-width: 0.6"/>
     <use xlink:href="#m3ea0ce2bcd" x="184.792784" y="63.333656" style="fill: #c8d4df; stroke: #ffffff; stroke-width: 0.6"/>
     <use xlink:href="#m3ea0ce2bcd" x="347.120057" y="63.333656" style="fill: #c8d4df; stroke: #ffffff; stroke-width: 0.6"/>
     <use xlink:href="#m3ea0ce2bcd" x="184.792784" y="260.901656" style="fill: #c8d4df; stroke: #ffffff; stroke-width: 0.6"/>
     <use xlink:href="#m3ea0ce2bcd" x="238.901875" y="317.349656" style="fill: #c8d4df; stroke: #ffffff; stroke-width: 0.6"/>
     <use xlink:href="#m3ea0ce2bcd" x="401.229148" y="204.453656" style="fill: #c8d4df; stroke: #ffffff; stroke-width: 0.6"/>
     <use xlink:href="#m3ea0ce2bcd" x="347.120057" y="232.677656" style="fill: #c8d4df; stroke: #ffffff; stroke-width: 0.6"/>
     <use xlink:href="#m3ea0ce2bcd" x="293.010966" y="317.349656" style="fill: #c8d4df; stroke: #ffffff; stroke-width: 0.6"/>
     <use xlink:href="#m3ea0ce2bcd" x="401.229148" y="35.109656" style="fill: #c8d4df; stroke: #ffffff; stroke-width: 0.6"/>
     <use xlink:href="#m3ea0ce2bcd" x="293.010966" y="289.125656" style="fill: #c8d4df; stroke: #ffffff; stroke-width: 0.6"/>
     <use xlink:href="#m3ea0ce2bcd" x="347.120057" y="35.109656" style="fill: #c8d4df; stroke: #ffffff; stroke-width: 0.6"/>
     <use xlink:href="#m3ea0ce2bcd" x="184.792784" y="232.677656" style="fill: #c8d4df; stroke: #ffffff; stroke-width: 0.6"/>
     <use xlink:href="#m3ea0ce2bcd" x="293.010966" y="232.677656" style="fill: #c8d4df; stroke: #ffffff; stroke-width: 0.6"/>
     <use xlink:href="#m3ea0ce2bcd" x="401.229148" y="63.333656" style="fill: #c8d4df; stroke: #ffffff; stroke-width: 0.6"/>
     <use xlink:href="#m3ea0ce2bcd" x="76.574602" y="119.781656" style="fill: #c8d4df; stroke: #ffffff; stroke-width: 0.6"/>
    </g>
   </g>
   <g id="line2d_14">
    <path d="M 238.901875 91.557656 
L 230.785511 91.557656 
" clip-path="url(#p00ae374693)" style="fill: none; stroke: #0c6db8; stroke-opacity: 0.8; stroke-width: 1.2; stroke-linecap: round"/>
   </g>
   <g id="line2d_15">
    <path d="M 238.901875 91.557656 
L 247.018239 91.557656 
" clip-path="url(#p00ae374693)" style="fill: none; stroke: #e06a36; stroke-opacity: 0.8; stroke-width: 1.2; stroke-linecap: round"/>
   </g>
   <g id="patch_3">
    <path d="M 60.341875 331.461656 
L 60.341875 20.997656 
" style="fill: none; stroke: #d8dee5; stroke-width: 1.875; stroke-linejoin: miter; stroke-linecap: square"/>
   </g>
   <g id="patch_4">
    <path d="M 417.461875 331.461656 
L 417.461875 20.997656 
" style="fill: none; stroke: #d8dee5; stroke-width: 1.875; stroke-linejoin: miter; stroke-linecap: square"/>
   </g>
   <g id="patch_5">
    <path d="M 60.341875 331.461656 
L 417.461875 331.461656 
" style="fill: none; stroke: #d8dee5; stroke-width: 1.875; stroke-linejoin: miter; stroke-linecap: square"/>
   </g>
   <g id="patch_6">
    <path d="M 60.341875 20.997656 
L 417.461875 20.997656 
" style="fill: none; stroke: #d8dee5; stroke-width: 1.875; stroke-linejoin: miter; stroke-linecap: square"/>
   </g>
   <g id="text_16">
    <text style="font-size: 9px; font-family: 'DejaVu Sans'; text-anchor: end; fill: #0c6db8" x="192.785511" y="117.557656" transform="rotate(-0 192.785511 117.557656)">04-14 17:00</text>
   </g>
   <g id="text_17">
    <text style="font-size: 9px; font-family: 'DejaVu Sans'; text-anchor: start; fill: #e06a36" x="285.018239" y="77.557656" transform="rotate(-0 285.018239 77.557656)">04-14 08:00</text>
   </g>
   <g id="text_18">
    <text style="font-size: 15px; font-family: 'DejaVu Sans'; text-anchor: middle; fill: #1d2433" x="238.901875" y="14.997656" transform="rotate(-0 238.901875 14.997656)">Highest risks share one central grid at different hours</text>
   </g>
   <g id="PathCollection_2">
    <defs>
     <path id="m4eb40e43b6" d="M 0 4.472136 
C 1.186024 4.472136 2.323632 4.000923 3.162278 3.162278 
C 4.000923 2.323632 4.472136 1.186024 4.472136 0 
C 4.472136 -1.186024 4.000923 -2.323632 3.162278 -3.162278 
C 2.323632 -4.000923 1.186024 -4.472136 0 -4.472136 
C -1.186024 -4.472136 -2.323632 -4.000923 -3.162278 -3.162278 
C -4.000923 -2.323632 -4.472136 -1.186024 -4.472136 0 
C -4.472136 1.186024 -4.000923 2.323632 -3.162278 3.162278 
C -2.323632 4.000923 -1.186024 4.472136 0 4.472136 
z
" style="stroke: #1d2433; stroke-width: 1.1"/>
    </defs>
    <g clip-path="url(#p00ae374693)">
     <use xlink:href="#m4eb40e43b6" x="238.901875" y="91.557656" style="fill: #ffffff; stroke: #1d2433; stroke-width: 1.1"/>
    </g>
   </g>
   <g id="PathCollection_3">
    <defs>
     <path id="mbe5bb179f7" d="M -0 8.062258 
L 8.062258 -8.062258 
L -8.062258 -8.062258 
z
" style="stroke: #1d2433; stroke-width: 1.2"/>
    </defs>
    <g clip-path="url(#p00ae374693)">
     <use xlink:href="#mbe5bb179f7" x="230.785511" y="91.557656" style="fill: #0c6db8; stroke: #1d2433; stroke-width: 1.2"/>
    </g>
   </g>
   <g id="PathCollection_4">
    <defs>
     <path id="m0dc600f4e2" d="M 0 -8.062258 
L -8.062258 8.062258 
L 8.062258 8.062258 
z
" style="stroke: #1d2433; stroke-width: 1.2"/>
    </defs>
    <g clip-path="url(#p00ae374693)">
     <use xlink:href="#m0dc600f4e2" x="247.018239" y="91.557656" style="fill: #e06a36; stroke: #1d2433; stroke-width: 1.2"/>
    </g>
   </g>
   <g id="legend_1">
    <g id="line2d_16">
     <path d="M 69.341875 288.525719 
L 79.341875 288.525719 
L 89.341875 288.525719 
" style="fill: none; stroke: #000000; stroke-opacity: 0; stroke-width: 2.25; stroke-linecap: round"/>
     <defs>
      <path id="m55f8a14f7b" d="M 0 4 
C 1.060812 4 2.078319 3.578535 2.828427 2.828427 
C 3.578535 2.078319 4 1.060812 4 0 
C 4 -1.060812 3.578535 -2.078319 2.828427 -2.828427 
C 2.078319 -3.578535 1.060812 -4 0 -4 
C -1.060812 -4 -2.078319 -3.578535 -2.828427 -2.828427 
C -3.578535 -2.078319 -4 -1.060812 -4 0 
C -4 1.060812 -3.578535 2.078319 -2.828427 2.828427 
C -2.078319 3.578535 -1.060812 4 0 4 
z
" style="stroke: #ffffff"/>
     </defs>
     <g>
      <use xlink:href="#m55f8a14f7b" x="79.341875" y="288.525719" style="fill: #c8d4df; stroke: #ffffff"/>
     </g>
    </g>
    <g id="text_19">
     <text style="font-size: 10px; font-family: 'DejaVu Sans'; text-anchor: start; fill: #1d2433" x="96.341875" y="292.025719" transform="rotate(-0 96.341875 292.025719)">Top 40 regions</text>
    </g>
    <g id="line2d_17">
     <path d="M 69.341875 302.703844 
L 79.341875 302.703844 
L 89.341875 302.703844 
" style="fill: none; stroke: #000000; stroke-opacity: 0; stroke-width: 2.25; stroke-linecap: round"/>
     <defs>
      <path id="mc62a4439ba" d="M -0 4.5 
L 4.5 -4.5 
L -4.5 -4.5 
z
" style="stroke: #1d2433; stroke-linejoin: miter"/>
     </defs>
     <g>
      <use xlink:href="#mc62a4439ba" x="79.341875" y="302.703844" style="fill: #0c6db8; stroke: #1d2433; stroke-linejoin: miter"/>
     </g>
    </g>
    <g id="text_20">
     <text style="font-size: 10px; font-family: 'DejaVu Sans'; text-anchor: start; fill: #1d2433" x="96.341875" y="306.203844" transform="rotate(-0 96.341875 306.203844)">Shortage</text>
    </g>
    <g id="line2d_18">
     <path d="M 69.341875 316.881969 
L 79.341875 316.881969 
L 89.341875 316.881969 
" style="fill: none; stroke: #000000; stroke-opacity: 0; stroke-width: 2.25; stroke-linecap: round"/>
     <defs>
      <path id="mb7de32b8c4" d="M 0 -4.5 
L -4.5 4.5 
L 4.5 4.5 
z
" style="stroke: #1d2433; stroke-linejoin: miter"/>
     </defs>
     <g>
      <use xlink:href="#mb7de32b8c4" x="79.341875" y="316.881969" style="fill: #e06a36; stroke: #1d2433; stroke-linejoin: miter"/>
     </g>
    </g>
    <g id="text_21">
     <text style="font-size: 10px; font-family: 'DejaVu Sans'; text-anchor: start; fill: #1d2433" x="96.341875" y="320.381969" transform="rotate(-0 96.341875 320.381969)">Overflow</text>
    </g>
   </g>
  </g>
 </g>
 <defs>
  <clipPath id="p00ae374693">
   <rect x="60.341875" y="20.997656" width="357.12" height="310.464"/>
  </clipPath>
 </defs>
</svg>
